<svg xmlns="http://www.w3.org/2000/svg" width="13" height="17.333" viewBox="0 0 13 17.333">
    <path id="Icon_awesome-file-medical" fill="#fff" d="M12.763 3.555L9.449.237A.812.812 0 0 0 8.873 0h-.206v4.333H13v-.206a.81.81 0 0 0-.237-.572zM7.583 4.6V0H.813A.811.811 0 0 0 0 .813v15.708a.811.811 0 0 0 .813.813h11.375a.811.811 0 0 0 .812-.813V5.417H8.4a.815.815 0 0 1-.817-.817zm2.167 5.421v1.625a.272.272 0 0 1-.271.271h-1.9v1.9a.272.272 0 0 1-.271.271h-1.62a.272.272 0 0 1-.271-.271v-1.9h-1.9a.272.272 0 0 1-.271-.271v-1.625a.272.272 0 0 1 .271-.271h1.9v-1.9a.272.272 0 0 1 .271-.271h1.625a.272.272 0 0 1 .271.271v1.9h1.9a.272.272 0 0 1 .266.271z" data-name="Icon awesome-file-medical"/>
</svg>
